<svg width="4912" height="962" viewBox="0 0 4912 962" fill="none" xmlns="http://www.w3.org/2000/svg">
<path d="M0 880H4912V894H0V880Z" fill="#C4C4C4"/>
<path d="M34 920H63V937H34V920Z" fill="#C4C4C4"/>
<path d="M110 937H134V951H110V937Z" fill="#C4C4C4"/>
<path d="M286 914H298V928H286V914Z" fill="#C4C4C4"/>
<path d="M636 937H648V951H636V937Z" fill="#C4C4C4"/>
<path d="M735 937H773V951H735V937Z" fill="#C4C4C4"/>
<path d="M789 914H826V928H789V914Z" fill="#C4C4C4"/>
<path d="M848 937H877V951H848V937Z" fill="#C4C4C4"/>
<path d="M1080 928H1092V942H1080V928Z" fill="#C4C4C4"/>
<path d="M1140 937H1174V951H1140V937Z" fill="#C4C4C4"/>
<path d="M1193 905H1222V920H1193V905Z" fill="#C4C4C4"/>
<path d="M1320 931H1338V945H1320V931Z" fill="#C4C4C4"/>
<path d="M523 914H535V928H523V914Z" fill="#C4C4C4"/>
<path d="M509 928H521V942H509V928Z" fill="#C4C4C4"/>
<path d="M495 937H513V951H495V937Z" fill="#C4C4C4"/>
<path d="M317 911H337V928H317V911Z" fill="#C4C4C4"/>
<path d="M537 905H575V922H537V905Z" fill="#C4C4C4"/>
<path d="M1453 925H1482V942H1453V925Z" fill="#C4C4C4"/>
<path d="M1530 942H1553V956H1530V942Z" fill="#C4C4C4"/>
<path d="M1705 920H1717V934H1705V920Z" fill="#C4C4C4"/>
<path d="M2056 942H2068V956H2056V942Z" fill="#C4C4C4"/>
<path d="M2155 942H2192V956H2155V942Z" fill="#C4C4C4"/>
<path d="M2208 920H2246V934H2208V920Z" fill="#C4C4C4"/>
<path d="M2268 942H2297V956H2268V942Z" fill="#C4C4C4"/>
<path d="M2500 934H2512V948H2500V934Z" fill="#C4C4C4"/>
<path d="M2559 942H2594V956H2559V942Z" fill="#C4C4C4"/>
<path d="M2613 911H2642V925H2613V911Z" fill="#C4C4C4"/>
<path d="M2740 937H2758V951H2740V937Z" fill="#C4C4C4"/>
<path d="M1943 920H1955V934H1943V920Z" fill="#C4C4C4"/>
<path d="M1928 934H1941V948H1928V934Z" fill="#C4C4C4"/>
<path d="M1914 942H1932V956H1914V942Z" fill="#C4C4C4"/>
<path d="M1736 917H1757V934H1736V917Z" fill="#C4C4C4"/>
<path d="M1957 911H1994V928H1957V911Z" fill="#C4C4C4"/>
<path d="M2873 928H2902V945H2873V928Z" fill="#C4C4C4"/>
<path d="M2949 945H2973V959H2949V945Z" fill="#C4C4C4"/>
<path d="M4301 937H4313V951H4301V937Z" fill="#C4C4C4"/>
<path d="M4360 945H4395V959H4360V945Z" fill="#C4C4C4"/>
<path d="M4414 914H4443V928H4414V914Z" fill="#C4C4C4"/>
<path d="M4541 939H4559V954H4541V939Z" fill="#C4C4C4"/>
<path d="M4674 931H4703V948H4674V931Z" fill="#C4C4C4"/>
<path d="M4750 948H4774V962H4750V948Z" fill="#C4C4C4"/>
<path d="M3124 922H3137V937H3124V922Z" fill="#C4C4C4"/>
<path d="M3475 945H3487V959H3475V945Z" fill="#C4C4C4"/>
<path d="M3574 945H3612V959H3574V945Z" fill="#C4C4C4"/>
<path d="M3628 922H3665V937H3628V922Z" fill="#C4C4C4"/>
<path d="M3687 945H3716V959H3687V945Z" fill="#C4C4C4"/>
<path d="M3919 937H3931V951H3919V937Z" fill="#C4C4C4"/>
<path d="M3978 945H4013V959H3978V945Z" fill="#C4C4C4"/>
<path d="M4032 914H4061V928H4032V914Z" fill="#C4C4C4"/>
<path d="M4159 939H4177V954H4159V939Z" fill="#C4C4C4"/>
<path d="M3362 922H3374V937H3362V922Z" fill="#C4C4C4"/>
<path d="M3348 937H3360V951H3348V937Z" fill="#C4C4C4"/>
<path d="M3334 945H3352V959H3334V945Z" fill="#C4C4C4"/>
<path d="M3156 920H3176V937H3156V920Z" fill="#C4C4C4"/>
<path d="M3376 914H3414V931H3376V914Z" fill="#C4C4C4"/>
<path d="M4861 920H4873V934H4861V920Z" fill="#C4C4C4"/>
<path d="M4846 934H4859V948H4846V934Z" fill="#C4C4C4"/>
<path d="M4832 942H4850V956H4832V942Z" fill="#C4C4C4"/>
<path d="M4875 911H4912V928H4875V911Z" fill="#C4C4C4"/>
<path d="M985.45 326.2H1408.1V338.05H985.45V326.2Z" fill="#C4C4C4"/>
<path d="M1388.35 306.45H1408.1V326.2H1388.35V306.45Z" fill="#C4C4C4"/>
<path d="M1364.65 286.7H1384.4V298.55H1364.65V286.7Z" fill="#C4C4C4"/>
<path d="M1364.65 294.6H1396.25V306.45H1364.65V294.6Z" fill="#C4C4C4"/>
<path d="M1352.8 266.95H1364.65V298.55H1352.8V266.95Z" fill="#C4C4C4"/>
<path d="M1333.05 266.95H1352.8V286.7H1333.05V266.95Z" fill="#C4C4C4"/>
<path d="M1321.2 243.25H1333.05V274.85H1321.2V243.25Z" fill="#C4C4C4"/>
<path d="M1269.85 243.25H1321.2V255.1H1269.85V243.25Z" fill="#C4C4C4"/>
<path d="M1226.4 227.45H1277.75V255.1H1226.4V227.45Z" fill="#C4C4C4"/>
<path d="M1214.55 255.1H1238.25V266.95H1214.55V255.1Z" fill="#C4C4C4"/>
<path d="M1214.55 266.95H1226.4V278.8H1214.55V266.95Z" fill="#C4C4C4"/>
<path d="M1222.45 215.6H1238.25V239.3H1222.45V215.6Z" fill="#C4C4C4"/>
<path d="M1214.55 199.8H1226.4V223.5H1214.55V199.8Z" fill="#C4C4C4"/>
<path d="M1194.8 199.8H1214.55V211.65H1194.8V199.8Z" fill="#C4C4C4"/>
<path d="M1159.25 191.9H1214.55V203.75H1159.25V191.9Z" fill="#C4C4C4"/>
<path d="M1171.1 184H1202.7V195.85H1171.1V184Z" fill="#C4C4C4"/>
<path d="M1111.85 195.85H1171.1V211.65H1111.85V195.85Z" fill="#C4C4C4"/>
<path d="M1088.15 211.65H1119.75V223.5H1088.15V211.65Z" fill="#C4C4C4"/>
<path d="M1080.25 223.5H1107.9V235.35H1080.25V223.5Z" fill="#C4C4C4"/>
<path d="M1068.4 231.4H1092.1V243.25H1068.4V231.4Z" fill="#C4C4C4"/>
<path d="M1068.4 243.25H1080.25V255.1H1068.4V243.25Z" fill="#C4C4C4"/>
<path d="M1032.85 255.1H1080.25V266.95H1032.85V255.1Z" fill="#C4C4C4"/>
<path d="M1024.95 266.95H1048.65V278.8H1024.95V266.95Z" fill="#C4C4C4"/>
<path d="M949.9 278.8H1032.85V294.6H949.9V278.8Z" fill="#C4C4C4"/>
<path d="M938.05 286.7H949.9V306.45H938.05V286.7Z" fill="#C4C4C4"/>
<path d="M930.15 298.55H942V330.15H930.15V298.55Z" fill="#C4C4C4"/>
<path d="M918.3 306.45H930.15V330.15H918.3V306.45Z" fill="#C4C4C4"/>
<path d="M890.65 310.4H910.4V330.15H890.65V310.4Z" fill="#C4C4C4"/>
<path d="M874.85 318.3H898.55V342H874.85V318.3Z" fill="#C4C4C4"/>
<path d="M863 330.15H874.85V342H863V330.15Z" fill="#C4C4C4"/>
<path d="M969.65 306.45H993.35V330.15H969.65V306.45Z" fill="#C4C4C4"/>
<path d="M1103.95 203.75H1111.85V211.65H1103.95V203.75Z" fill="#C4C4C4"/>
<path d="M1277.75 235.35H1325.15V247.2H1277.75V235.35Z" fill="#C4C4C4"/>
<path d="M2379.45 142.2H2802.1V154.05H2379.45V142.2Z" fill="#C4C4C4"/>
<path d="M2782.35 122.45H2802.1V142.2H2782.35V122.45Z" fill="#C4C4C4"/>
<path d="M2758.65 102.7H2778.4V114.55H2758.65V102.7Z" fill="#C4C4C4"/>
<path d="M2758.65 110.6H2790.25V122.45H2758.65V110.6Z" fill="#C4C4C4"/>
<path d="M2746.8 82.95H2758.65V114.55H2746.8V82.95Z" fill="#C4C4C4"/>
<path d="M2727.05 82.95H2746.8V102.7H2727.05V82.95Z" fill="#C4C4C4"/>
<path d="M2715.2 59.25H2727.05V90.85H2715.2V59.25Z" fill="#C4C4C4"/>
<path d="M2663.85 59.25H2715.2V71.1H2663.85V59.25Z" fill="#C4C4C4"/>
<path d="M2620.4 43.45H2671.75V71.1H2620.4V43.45Z" fill="#C4C4C4"/>
<path d="M2608.55 71.1H2632.25V82.95H2608.55V71.1Z" fill="#C4C4C4"/>
<path d="M2608.55 82.95H2620.4V94.8H2608.55V82.95Z" fill="#C4C4C4"/>
<path d="M2616.45 31.6H2632.25V55.3H2616.45V31.6Z" fill="#C4C4C4"/>
<path d="M2608.55 15.8H2620.4V39.5H2608.55V15.8Z" fill="#C4C4C4"/>
<path d="M2588.8 15.8H2608.55V27.65H2588.8V15.8Z" fill="#C4C4C4"/>
<path d="M2553.25 7.9H2608.55V19.75H2553.25V7.9Z" fill="#C4C4C4"/>
<path d="M2565.1 0H2596.7V11.85H2565.1V0Z" fill="#C4C4C4"/>
<path d="M2505.85 11.85H2565.1V27.65H2505.85V11.85Z" fill="#C4C4C4"/>
<path d="M2482.15 27.65H2513.75V39.5H2482.15V27.65Z" fill="#C4C4C4"/>
<path d="M2474.25 39.5H2501.9V51.35H2474.25V39.5Z" fill="#C4C4C4"/>
<path d="M2462.4 47.4H2486.1V59.25H2462.4V47.4Z" fill="#C4C4C4"/>
<path d="M2462.4 59.25H2474.25V71.1H2462.4V59.25Z" fill="#C4C4C4"/>
<path d="M2426.85 71.1H2474.25V82.95H2426.85V71.1Z" fill="#C4C4C4"/>
<path d="M2418.95 82.95H2442.65V94.8H2418.95V82.95Z" fill="#C4C4C4"/>
<path d="M2343.9 94.8H2426.85V110.6H2343.9V94.8Z" fill="#C4C4C4"/>
<path d="M2332.05 102.7H2343.9V122.45H2332.05V102.7Z" fill="#C4C4C4"/>
<path d="M2324.15 114.55H2336V146.15H2324.15V114.55Z" fill="#C4C4C4"/>
<path d="M2312.3 122.45H2324.15V146.15L2312.3 146.15V122.45Z" fill="#C4C4C4"/>
<path d="M2284.65 126.4H2304.4V146.15H2284.65V126.4Z" fill="#C4C4C4"/>
<path d="M2268.85 134.3H2292.55V158H2268.85V134.3Z" fill="#C4C4C4"/>
<path d="M2257 146.15H2268.85V158H2257V146.15Z" fill="#C4C4C4"/>
<path d="M2363.65 122.45H2387.35V146.15H2363.65V122.45Z" fill="#C4C4C4"/>
<path d="M2497.95 19.75H2505.85V27.65L2497.95 27.65V19.75Z" fill="#C4C4C4"/>
<path d="M2671.75 51.35H2719.15V63.2H2671.75V51.35Z" fill="#C4C4C4"/>
<path d="M3881.45 322.2H4304.1V334.05H3881.45V322.2Z" fill="#C4C4C4"/>
<path d="M4284.35 302.45H4304.1V322.2H4284.35V302.45Z" fill="#C4C4C4"/>
<path d="M4260.65 282.7H4280.4V294.55H4260.65V282.7Z" fill="#C4C4C4"/>
<path d="M4260.65 290.6H4292.25V302.45H4260.65V290.6Z" fill="#C4C4C4"/>
<path d="M4248.8 262.95H4260.65V294.55H4248.8V262.95Z" fill="#C4C4C4"/>
<path d="M4229.05 262.95H4248.8V282.7H4229.05V262.95Z" fill="#C4C4C4"/>
<path d="M4217.2 239.25H4229.05V270.85H4217.2V239.25Z" fill="#C4C4C4"/>
<path d="M4165.85 239.25H4217.2V251.1H4165.85V239.25Z" fill="#C4C4C4"/>
<path d="M4122.4 223.45H4173.75V251.1H4122.4V223.45Z" fill="#C4C4C4"/>
<path d="M4110.55 251.1H4134.25V262.95H4110.55V251.1Z" fill="#C4C4C4"/>
<path d="M4110.55 262.95H4122.4V274.8H4110.55V262.95Z" fill="#C4C4C4"/>
<path d="M4118.45 211.6H4134.25V235.3H4118.45V211.6Z" fill="#C4C4C4"/>
<path d="M4110.55 195.8H4122.4V219.5H4110.55V195.8Z" fill="#C4C4C4"/>
<path d="M4090.8 195.8H4110.55V207.65H4090.8V195.8Z" fill="#C4C4C4"/>
<path d="M4055.25 187.9H4110.55V199.75H4055.25V187.9Z" fill="#C4C4C4"/>
<path d="M4067.1 180H4098.7V191.85H4067.1V180Z" fill="#C4C4C4"/>
<path d="M4007.85 191.85H4067.1V207.65H4007.85V191.85Z" fill="#C4C4C4"/>
<path d="M3984.15 207.65H4015.75V219.5H3984.15V207.65Z" fill="#C4C4C4"/>
<path d="M3976.25 219.5H4003.9V231.35H3976.25V219.5Z" fill="#C4C4C4"/>
<path d="M3964.4 227.4H3988.1V239.25H3964.4V227.4Z" fill="#C4C4C4"/>
<path d="M3964.4 239.25H3976.25V251.1H3964.4V239.25Z" fill="#C4C4C4"/>
<path d="M3928.85 251.1H3976.25V262.95H3928.85V251.1Z" fill="#C4C4C4"/>
<path d="M3920.95 262.95H3944.65V274.8H3920.95V262.95Z" fill="#C4C4C4"/>
<path d="M3845.9 274.8H3928.85V290.6H3845.9V274.8Z" fill="#C4C4C4"/>
<path d="M3834.05 282.7H3845.9V302.45H3834.05V282.7Z" fill="#C4C4C4"/>
<path d="M3826.15 294.55H3838V326.15H3826.15V294.55Z" fill="#C4C4C4"/>
<path d="M3814.3 302.45H3826.15V326.15H3814.3V302.45Z" fill="#C4C4C4"/>
<path d="M3786.65 306.4H3806.4V326.15H3786.65V306.4Z" fill="#C4C4C4"/>
<path d="M3770.85 314.3H3794.55V338H3770.85V314.3Z" fill="#C4C4C4"/>
<path d="M3759 326.15H3770.85V338H3759V326.15Z" fill="#C4C4C4"/>
<path d="M3865.65 302.45H3889.35V326.15H3865.65V302.45Z" fill="#C4C4C4"/>
<path d="M3999.95 199.75H4007.85V207.65H3999.95V199.75Z" fill="#C4C4C4"/>
<path d="M4173.75 231.35H4221.15V243.2H4173.75V231.35Z" fill="#C4C4C4"/>
</svg>
