<svg width="230" height="473" viewBox="0 0 230 473" fill="none" xmlns="http://www.w3.org/2000/svg">
<path d="M93.3333 0H136.667V439.69H93.3333V0Z" fill="#333333"/>
<path d="M80 9.99296H93.3333V439.69H80V9.99296Z" fill="#333333"/>
<path d="M136.667 9.99296H146.667V443.021H136.667V9.99296Z" fill="#333333"/>
<path d="M36.6667 249.824H80V296.458H36.6667V249.824Z" fill="#333333"/>
<path d="M10 116.585H40V279.803H10V116.585Z" fill="#333333"/>
<path d="M0 126.577H10V269.81H0V126.577Z" fill="#333333"/>
<path d="M40 126.577H50V253.155H40V126.577Z" fill="#333333"/>
<path d="M146.667 249.824H190V289.796H146.667V249.824Z" fill="#333333"/>
<path d="M190 99.9296H220V259.817H190V99.9296Z" fill="#333333"/>
<path d="M190 259.817H210V269.81H190V259.817Z" fill="#333333"/>
<path d="M190 266.479H203.333V279.803H190V266.479Z" fill="#333333"/>
<path d="M180 106.592H190V249.824H180V106.592Z" fill="#333333"/>
<path d="M216.667 109.923H226.667V253.155H216.667V109.923Z" fill="#333333"/>
<path d="M60 439.69H146.667V449.683H60V439.69Z" fill="#333333"/>
<path d="M36.6667 433.028H53.3333V449.683H36.6667V433.028Z" fill="#333333"/>
<path d="M190 413.042H230V429.697H190V413.042Z" fill="#333333"/>
<path d="M173.333 423.035H190V439.69H173.333V423.035Z" fill="#333333"/>
<path d="M156.667 439.69H173.333V456.345H156.667V439.69Z" fill="#333333"/>
<path d="M146.667 446.352H163.333V463.007H146.667V446.352Z" fill="#333333"/>
<path d="M26.6667 279.803H36.6667V286.465H26.6667V279.803Z" fill="#333333"/>
<path d="M86.6667 456.345H103.333V466.338H86.6667V456.345Z" fill="#333333"/>
<path d="M113.333 463.007H130V473H113.333V463.007Z" fill="#333333"/>
<path d="M56.6667 463.007H73.3333V473H56.6667V463.007Z" fill="#333333"/>
</svg>
