<svg width="80" height="79" viewBox="0 0 80 79" fill="none" xmlns="http://www.w3.org/2000/svg">
<path d="M0 27.6954H3.85269V47.2184H0V27.6954Z" fill="#333333"/>
<path d="M3.85269 35.4138H7.93201V51.3046H3.85269V35.4138Z" fill="#333333"/>
<path d="M7.93201 39.727H12.0113V55.6178H7.93201V39.727Z" fill="#333333"/>
<path d="M12.0113 43.5862H16.0907V59.477H12.0113V43.5862Z" fill="#333333"/>
<path d="M16.0907 43.5862H20.17V63.5632H16.0907V43.5862Z" fill="#333333"/>
<path d="M20.17 39.727H24.2493V79H20.17V39.727Z" fill="#333333"/>
<path d="M24.2493 75.1408H28.102V79H24.2493V75.1408Z" fill="#333333"/>
<path d="M24.2493 35.6408H28.102V71.5086H24.2493V35.6408Z" fill="#333333"/>
<path d="M28.102 31.7816H31.9547V67.6494H28.102V31.7816Z" fill="#333333"/>
<path d="M31.9547 27.6954H35.8074V63.5632H31.9547V27.6954Z" fill="#333333"/>
<path d="M35.8074 3.63218H39.6601V67.6494H35.8074V3.63218Z" fill="#333333"/>
<path d="M39.6601 0H43.966V79H39.6601V0Z" fill="#333333"/>
<path d="M43.5127 0H48.272V3.63218H43.5127V0Z" fill="#333333"/>
<path d="M43.7394 7.26437H48.4986V59.704H43.7394V7.26437Z" fill="#333333"/>
<path d="M48.0453 0H52.3513V55.6178H48.0453V0Z" fill="#333333"/>
<path d="M51.898 0H56.204V51.7586H51.898V0Z" fill="#333333"/>
<path d="M43.5127 75.3678H48.0453V79H43.5127V75.3678Z" fill="#333333"/>
<path d="M56.204 35.4138H63.9093V39.5H56.204V35.4138Z" fill="#333333"/>
<path d="M60.0567 39.5H63.9093V43.5862H60.0567V39.5Z" fill="#333333"/>
<path d="M56.204 0H60.0567V27.2414H56.204V0Z" fill="#333333"/>
<path d="M60.0567 0H75.9207V19.296H60.0567V0Z" fill="#333333"/>
<path d="M75.9207 3.63218H80V19.296H75.9207V3.63218Z" fill="#333333"/>
<path d="M60.0567 23.3822H72.068V27.2414H60.0567V23.3822Z" fill="#333333"/>
</svg>
